<svg width="80" height="40" viewBox="0 0 80 40" fill="none" xmlns="http://www.w3.org/2000/svg">
<path d="M6 32L14.5981 25.6202C15.027 25.302 15.6884 25.2376 16.2124 25.4631L19.7062 26.9669C20.3408 27.2401 21.1518 27.0823 21.5268 26.6127L24.375 23.0463C24.727 22.6056 25.469 22.4352 26.0922 22.6519L27.1601 23.0234C27.715 23.2163 28.3745 23.1042 28.7626 22.7508L31.102 20.6204C31.5017 20.2565 32.2577 20.2816 32.6127 20.6704V20.6704C32.9553 21.0458 33.6774 21.0847 34.0889 20.7499L35.4753 19.6215C36.0951 19.1172 37.1951 19.2158 37.637 19.8153L38.8092 21.4054L40.2505 23.9619C40.5775 24.5419 41.5324 24.7551 42.2324 24.4045L43.3667 23.8364C43.9219 23.5583 44.6668 23.6282 45.1123 24.0002L46.1932 24.9025C46.8059 25.4139 47.9112 25.3236 48.3609 24.7252L50.0741 22.4461C50.1613 22.33 50.2786 22.2282 50.4193 22.1464L54.2928 19.8946C54.7413 19.6339 55.3613 19.6127 55.8398 19.8418L59.4541 21.5721C60.1921 21.9254 61.1785 21.6633 61.4512 21.0414L65.4453 11.9323C65.6256 11.5212 66.1393 11.2432 66.7189 11.2432H68.2819C68.6484 11.2432 68.9988 11.1313 69.2516 10.9334L73 8" stroke="#1ABC7B"/>
</svg>
