<svg width="80" height="40" viewBox="0 0 80 40" fill="none" xmlns="http://www.w3.org/2000/svg">
<path d="M7 30.3737H8.82372C9.17746 30.3737 9.48814 30.1427 9.58435 29.808L10.7009 25.924C10.8949 25.2492 11.8272 25.1523 12.1604 25.7724L13.8234 28.8669C13.8487 28.9141 13.8691 28.9637 13.8841 29.0149L14.4499 30.9472C14.6269 31.5518 15.4233 31.7097 15.8249 31.22L18.2123 28.308C18.6022 27.8324 19.372 27.9646 19.5749 28.5418L20.606 31.4763C20.7701 31.9436 21.3306 32.1433 21.7612 31.888L23.0427 31.1282C23.236 31.0136 23.3702 30.8233 23.4116 30.6052L26.3993 14.8496C26.514 14.2445 27.3554 14.149 27.6074 14.7125V14.7125C27.8303 15.2109 28.5496 15.2109 28.7725 14.7125L29.3949 13.3205C29.5212 13.0384 29.805 12.8562 30.1186 12.8562H32.2684C32.6054 12.8562 32.9054 12.6461 33.0155 12.3329L34.354 8.5234C34.6132 7.78562 35.6932 7.84208 35.8714 8.60273L36.3928 10.8285C36.5569 11.5293 37.5178 11.6538 37.861 11.0188L37.902 10.9431C38.2441 10.3102 39.201 10.4313 39.3691 11.1286L41.1883 18.679C41.2607 18.9797 41.5075 19.2096 41.8167 19.2645L42.5768 19.3997C42.7966 19.4389 42.9894 19.5676 43.1073 19.7541L43.9804 21.1346C44.3092 21.6545 45.0921 21.6137 45.3632 21.0626L46.1026 19.5596C46.1347 19.4943 46.1574 19.4249 46.1699 19.3535L46.9106 15.1376C47.0177 14.5283 47.7707 14.28 48.2298 14.7027L49.8498 16.1943C50.2257 16.5405 50.8327 16.4463 51.0819 16.0031L51.4299 15.3839C51.747 14.8201 52.5841 14.8586 52.8462 15.4491L54.6045 19.4106C54.6194 19.4443 54.6319 19.4789 54.6419 19.5144L55.9395 24.1306C56.1487 24.8748 57.2142 24.8961 57.454 24.161L58.9746 19.5007C59.124 19.043 59.671 18.8451 60.0865 19.0985V19.0985C60.4216 19.3028 60.8603 19.2178 61.0915 18.9038L64.3007 14.5448C64.6613 14.055 65.4278 14.1399 65.6685 14.6964L66.297 16.1498C66.5107 16.6441 67.158 16.7812 67.5599 16.4173L67.8438 16.1602C68.3131 15.7352 69.0749 16.0039 69.1623 16.6254L69.6054 19.7782C69.7245 20.6255 70.9454 20.6894 71.1554 19.8594L73 12.5691" stroke="#1ABC7B" stroke-linecap="round"/>
</svg>
