<svg width="80" height="40" viewBox="0 0 80 40" fill="none" xmlns="http://www.w3.org/2000/svg">
<path d="M73 31L64.4019 24.6202C63.973 24.302 63.3115 24.2376 62.7876 24.4631L59.2938 25.9669C58.6592 26.2401 57.8482 26.0823 57.4732 25.6127L54.625 22.0463C54.273 21.6056 53.531 21.4352 52.9078 21.6519L51.8399 22.0234C51.285 22.2163 50.6255 22.1042 50.2374 21.7508L47.898 19.6204C47.4983 19.2565 46.7423 19.2816 46.3873 19.6704V19.6704C46.0447 20.0458 45.3226 20.0847 44.9111 19.7499L43.5247 18.6215C42.9049 18.1172 41.8049 18.2158 41.363 18.8153L40.1908 20.4054L38.7495 22.9619C38.4225 23.5419 37.4676 23.7551 36.7676 23.4045L35.6333 22.8364C35.0781 22.5583 34.3332 22.6282 33.8877 23.0002L32.8068 23.9025C32.1941 24.4139 31.0888 24.3236 30.6391 23.7252L28.9259 21.4461C28.8387 21.33 28.7214 21.2282 28.5807 21.1464L24.7072 18.8946C24.2587 18.6339 23.6387 18.6127 23.1602 18.8418L19.5459 20.5721C18.8079 20.9254 17.8215 20.6633 17.5488 20.0414L13.5547 10.9323C13.3745 10.5212 12.8606 10.2432 12.2811 10.2432H10.7181C10.3517 10.2432 10.0012 10.1313 9.74836 9.93336L6 7" stroke="#F13005"/>
</svg>
