<svg width="80" height="40" viewBox="0 0 80 40" fill="none" xmlns="http://www.w3.org/2000/svg">
<path d="M7 28.0863L8.12859 29.4039C8.54302 29.8877 9.36978 29.7433 9.5677 29.1525L11.0397 24.7586C11.2645 24.0874 12.2575 24.023 12.5802 24.6587L12.8497 25.1897C12.9867 25.4595 13.2785 25.6316 13.599 25.6316H13.8385C14.2142 25.6316 14.5429 25.867 14.6395 26.2051L15.6098 29.6035C15.7468 30.0831 16.3272 30.3195 16.7983 30.0874L17.4708 29.7562C17.6485 29.6687 17.7859 29.524 17.8576 29.3492L18.5446 27.6735C18.8234 26.9935 19.8655 27.018 20.1071 27.7102L21.418 31.4666C21.6328 32.0823 22.5174 32.1928 22.899 31.6516L26.7745 26.1543C27.1677 25.5966 28.0842 25.7348 28.2683 26.3795L28.5887 27.5018C28.7898 28.2059 29.8304 28.2823 30.1474 27.6162L31.3363 25.1177C31.4561 24.866 31.7107 24.6929 32.0046 24.6631L34.0306 24.4585C34.3566 24.4255 34.6311 24.2167 34.7308 23.9258L36.4259 18.9783C36.5617 18.582 37.0105 18.3573 37.4405 18.4702L38.2177 18.6744C38.6544 18.789 39.109 18.5554 39.2375 18.1502L39.5241 17.2468C39.7438 16.5542 40.7735 16.497 41.0802 17.1603L43.4298 22.243C43.6929 22.8122 44.5644 22.7996 44.8083 22.2229L44.8784 22.0571C45.0654 21.6151 45.7044 21.543 45.9995 21.9304C46.3003 22.3256 46.9545 22.2409 47.1283 21.7844L48.9394 17.0272C49.1166 16.5616 49.7113 16.3688 50.1607 16.6311L51.1854 17.2293C51.3173 17.3063 51.4699 17.3471 51.6256 17.3471H52.3142C52.7221 17.3471 53.0694 17.0707 53.1329 16.6955L53.8469 12.4758C53.9103 12.1006 54.2576 11.8242 54.6655 11.8242H55.9327C56.288 11.8242 56.6036 12.0349 56.7177 12.3481L58.1939 16.4022C58.4593 17.1308 59.581 17.0888 59.7825 16.3426L61.5304 9.87288C61.6127 9.56851 61.8847 9.34083 62.2185 9.29699L66.0784 8.79003C66.2479 8.76777 66.4058 8.69723 66.5304 8.58807L66.9626 8.20962C67.3569 7.86443 67.9948 7.95793 68.2561 8.39918L69.0077 9.66837C69.1981 9.98984 69.6568 10.0686 69.9578 9.83141C70.2601 9.59317 70.7212 9.67389 70.9099 9.9981L73 13.5878" stroke="#F13005" stroke-linecap="round"/>
</svg>
