<svg width="24" height="24" viewBox="0 0 24 24" fill="none" xmlns="http://www.w3.org/2000/svg">
<path fill-rule="evenodd" clip-rule="evenodd" d="M21.3809 20.7618H4.105C3.62704 20.7618 3.23824 20.373 3.23824 19.895V2.61912C3.23824 2.27737 2.96087 2 2.61912 2C2.27737 2 2 2.27737 2 2.61912V19.895C2 21.056 2.94453 22 4.105 22H21.3809C21.7226 22 22 21.7226 22 21.3809C22 21.0391 21.7231 20.7618 21.3809 20.7618ZM9.3447 17.0372C12.1323 15.9235 16.1683 13.1497 19.8009 6.33348L19.9764 8.77005C20.0001 9.09546 20.2716 9.34372 20.5924 9.34372C20.6073 9.34372 20.6226 9.34322 20.6374 9.34223C20.9776 9.318 21.2342 9.02177 21.2095 8.68153L20.9029 4.43002C20.8886 4.23121 20.7788 4.0512 20.6083 3.94686C20.4387 3.843 20.2276 3.82718 20.0446 3.90532L16.1218 5.5719C15.8074 5.70542 15.661 6.06792 15.7945 6.38244C15.928 6.69647 16.2894 6.84483 16.6049 6.70982L18.6671 5.834C15.2225 12.262 11.4702 14.8568 8.88538 15.8894C8.56845 16.0165 8.41419 16.3755 8.54076 16.693C8.63817 16.9348 8.87005 17.0812 9.11578 17.0812C9.19193 17.0812 9.26955 17.0674 9.3447 17.0372ZM5.51047 17.8701C5.16366 17.8701 4.96491 17.8443 4.94951 17.8418C4.60965 17.7951 4.37215 17.4824 4.41885 17.1424C4.46506 16.8044 4.77859 16.5716 5.11546 16.6118C5.12938 16.6137 5.7122 16.6832 6.6647 16.5323C7.00307 16.4777 7.32156 16.7091 7.37522 17.0481C7.42839 17.3866 7.19734 17.7048 6.85848 17.7579C6.29702 17.8467 5.83741 17.8701 5.51047 17.8701Z" fill="black"/>
<path d="M9.34477 17.0372C12.1324 15.9236 16.1684 13.1497 19.8009 6.33353L19.9764 8.77011C20.0002 9.09551 20.2716 9.34377 20.5925 9.34377C20.6073 9.34377 20.6227 9.34327 20.6375 9.34228C20.9777 9.31805 21.2343 9.02183 21.2096 8.68159L20.903 4.43007C20.8887 4.23127 20.7789 4.05126 20.6083 3.94691C20.4387 3.84306 20.2276 3.82723 20.0447 3.90537L16.1219 5.57195C15.8074 5.70548 15.6611 6.06797 15.7946 6.38249C15.9281 6.69652 16.2895 6.84488 16.6049 6.70988L18.6672 5.83405C15.2225 12.262 11.4703 14.8568 8.88544 15.8894C8.56851 16.0165 8.41425 16.3756 8.54083 16.693C8.63823 16.9349 8.87012 17.0813 9.11585 17.0813C9.19199 17.0813 9.26961 17.0674 9.34477 17.0372Z" fill="#1ABC7B"/>
<path d="M4.9496 17.8418C4.96501 17.8443 5.16375 17.8701 5.51057 17.8701C5.83751 17.8701 6.29711 17.8468 6.85857 17.7579C7.19743 17.7048 7.42848 17.3867 7.37531 17.0481C7.32165 16.7091 7.00316 16.4778 6.66479 16.5324C5.7123 16.6833 5.12947 16.6138 5.11556 16.6118C4.77868 16.5716 4.46516 16.8044 4.41895 17.1424C4.37224 17.4825 4.60974 17.7952 4.9496 17.8418Z" fill="#1ABC7B"/>
</svg>
