<svg width="24" height="24" viewBox="0 0 24 24" fill="none" xmlns="http://www.w3.org/2000/svg">
<path fill-rule="evenodd" clip-rule="evenodd" d="M15.9232 3C18.9597 3 21 5.13153 21 8.30374V15.6963C21 18.8685 18.9597 21 15.9232 21H8.07684C5.04028 21 3 18.8685 3 15.6963V8.30374C3 5.13153 5.04028 3 8.07684 3H15.9232ZM15.9232 4.25581H8.07684C5.75609 4.25581 4.25581 5.844 4.25581 8.30374V15.6963C4.25581 18.156 5.75609 19.7442 8.07684 19.7442H15.9232C18.2447 19.7442 19.7442 18.156 19.7442 15.6963V8.30374C19.7442 5.844 18.2447 4.25581 15.9232 4.25581Z" fill="black"/>
<path fill-rule="evenodd" clip-rule="evenodd" d="M8.12464 9.86719C8.47125 9.86719 8.75255 10.1485 8.75255 10.4951V16.2383C8.75255 16.5849 8.47125 16.8662 8.12464 16.8662C7.77804 16.8662 7.49674 16.5849 7.49674 16.2383V10.4951C7.49674 10.1485 7.77804 9.86719 8.12464 9.86719Z" fill="#1ABC7B"/>
<path fill-rule="evenodd" clip-rule="evenodd" d="M12.0319 7.1178C12.3785 7.1178 12.6598 7.3991 12.6598 7.7457V16.2375C12.6598 16.5841 12.3785 16.8654 12.0319 16.8654C11.6853 16.8654 11.404 16.5841 11.404 16.2375V7.7457C11.404 7.3991 11.6853 7.1178 12.0319 7.1178Z" fill="#1ABC7B"/>
<path fill-rule="evenodd" clip-rule="evenodd" d="M15.8749 12.9021C16.2215 12.9021 16.5028 13.1834 16.5028 13.53V16.2375C16.5028 16.5841 16.2215 16.8654 15.8749 16.8654C15.5283 16.8654 15.247 16.5841 15.247 16.2375V13.53C15.247 13.1834 15.5283 12.9021 15.8749 12.9021Z" fill="#1ABC7B"/>
</svg>
