<svg width="24" height="24" viewBox="0 0 24 24" fill="none" xmlns="http://www.w3.org/2000/svg">
<mask id="mask0_1_8368" style="mask-type:luminance" maskUnits="userSpaceOnUse" x="2" y="2" width="20" height="20">
<path fill-rule="evenodd" clip-rule="evenodd" d="M2 2L22 2L22 22L2 22L2 2Z" fill="white"/>
</mask>
<g mask="url(#mask0_1_8368)">
<path fill-rule="evenodd" clip-rule="evenodd" d="M9.46094 15.4141C10.6328 13.9141 10.0469 12.0391 10.0469 12.0391C10.0471 12.0391 12.7812 13.1641 12.6527 16.3516C13.7578 15.9766 14.1484 14.1016 14.1484 14.1016C14.1484 14.1016 15.5156 15.7891 15.5156 17.6641C15.5156 19.528 13.9416 21.0391 12 21.0391C10.0584 21.0391 8.48438 19.528 8.48438 17.6639C8.48441 16.8398 8.95969 16.0557 9.46094 15.4141Z" fill="#E0F64B" stroke="#E0F64B" stroke-linecap="round" stroke-linejoin="round"/>
<path d="M19.8125 3.17188C19.8125 3.49547 19.5502 3.75781 19.2266 3.75781C18.903 3.75781 18.6406 3.49547 18.6406 3.17188C18.6406 2.84828 18.903 2.58594 19.2266 2.58594C19.5502 2.58594 19.8125 2.84828 19.8125 3.17188Z" fill="#E0F64B"/>
<path d="M15.5156 3.17188C15.5156 3.49547 15.2533 3.75781 14.9297 3.75781C14.6061 3.75781 14.3438 3.49547 14.3438 3.17188C14.3438 2.84828 14.6061 2.58594 14.9297 2.58594C15.2533 2.58594 15.5156 2.84828 15.5156 3.17188Z" fill="#E0F64B"/>
<path d="M4.1875 5.59375C4.1875 5.91734 4.44984 6.17969 4.77344 6.17969C5.09703 6.17969 5.35938 5.91734 5.35938 5.59375C5.35938 5.27016 5.09703 5.00781 4.77344 5.00781C4.44984 5.00781 4.1875 5.27016 4.1875 5.59375Z" fill="#E0F64B"/>
<path fill-rule="evenodd" clip-rule="evenodd" d="M6.92187 9.69531C9.26562 6.57031 8.09375 2.58594 8.09375 2.58594C8.09422 2.58613 13.5625 5.00781 13.3054 11.6484C15.5156 10.8672 16.2969 6.96094 16.2969 6.96094C16.2969 6.96094 19.0312 10.4766 19.0312 14.3828C19.0312 18.2661 15.8832 21.4141 12 21.4141C8.11676 21.4141 4.96875 18.2661 4.96875 14.3824C4.96887 12.6656 5.91934 11.032 6.92187 9.69531Z" stroke="white" stroke-width="1.2" stroke-linecap="round" stroke-linejoin="round"/>
</g>
</svg>
