<svg width="25" height="24" viewBox="0 0 25 24" fill="none" xmlns="http://www.w3.org/2000/svg">
<path d="M24.265 9.92822C24.0481 9.71169 23.6962 9.71169 23.4796 9.92822L22.1679 11.238C21.8496 6.93459 18.7953 3.32387 14.5997 2.29078C10.4043 1.25749 6.01905 3.03645 3.73348 6.69856C3.62628 6.86654 3.61753 7.07921 3.71069 7.25553C3.80386 7.43184 3.98449 7.54477 4.18404 7.55107C4.38359 7.55757 4.57134 7.45641 4.67549 7.2864C6.69194 4.05613 10.5483 2.47116 14.2576 3.34824C17.967 4.22533 20.7021 7.36846 21.054 11.1587L19.8212 9.92822C19.6033 9.71819 19.2569 9.72104 19.0425 9.93513C18.8283 10.149 18.8252 10.4949 19.0358 10.7127L21.2577 12.9312C21.4745 13.1479 21.8262 13.1479 22.0431 12.9312L24.265 10.7127C24.482 10.4962 24.482 10.1448 24.265 9.92822Z" fill="black"/>
<path d="M20.5211 16.5373C20.2608 16.3754 19.9181 16.4542 19.7549 16.7134C17.7375 19.9441 13.8794 21.529 10.168 20.6519C6.45688 19.7749 3.72052 16.6315 3.36865 12.841L4.60171 14.0718C4.81966 14.2818 5.16623 14.279 5.38073 14.0649C5.59503 13.851 5.59808 13.5051 5.38745 13.2873L3.16454 11.0688C2.9476 10.8521 2.59573 10.8521 2.37879 11.0688L0.156085 13.2873C-0.0545453 13.5051 -0.0516962 13.851 0.162801 14.0649C0.377094 14.279 0.723667 14.2818 0.941827 14.0718L2.25384 12.762C2.57253 17.0654 5.62799 20.6761 9.82554 21.7092C14.0231 22.7425 18.4101 20.9637 20.6967 17.3014C20.8591 17.042 20.7805 16.7002 20.5211 16.5373Z" fill="#1ABC7B"/>
</svg>
