<svg width="24" height="24" viewBox="0 0 24 24" fill="none" xmlns="http://www.w3.org/2000/svg">
<path fill-rule="evenodd" clip-rule="evenodd" d="M3.71439 14.0801H20.2855C20.8486 14.0801 21.3394 13.8455 21.6325 13.4367C21.9257 13.0278 21.9913 12.485 21.8128 11.9474L20.0915 6.75704C19.7649 5.77167 18.7001 5 17.6674 5H6.33299C5.30028 5 4.23547 5.77167 3.90932 6.75704L2.18703 11.9474C2.00862 12.485 2.0747 13.0278 2.36733 13.4367C2.66044 13.8455 3.1513 14.0801 3.71439 14.0801ZM3.32208 12.3526L5.04518 7.14949C5.21239 6.64446 5.82218 6.20178 6.35073 6.20178H17.6935C18.2216 6.20178 18.8319 6.64493 18.9995 7.14949L20.7222 12.3521C20.7798 12.5259 20.7732 12.6753 20.7037 12.7724C20.6343 12.8695 20.4959 12.9228 20.3141 12.9228H3.73019C3.54834 12.9228 3.40994 12.8695 3.34051 12.7724C3.27107 12.6753 3.26446 12.5263 3.32208 12.3526ZM20.2839 16.0386H3.72072C3.09611 16.0386 2.49697 15.7409 2.11861 15.2413C1.92283 14.9831 1.97472 14.6156 2.23514 14.4211C2.49461 14.2256 2.86447 14.2777 3.06072 14.5364C3.21971 14.7459 3.46031 14.8664 3.72072 14.8664H20.2839C20.5425 14.8664 20.7821 14.7473 20.9416 14.5401C21.1392 14.2823 21.5086 14.2331 21.7681 14.4295C22.0266 14.6259 22.0766 14.9934 21.8794 15.2507C21.4945 15.7517 20.9133 16.0386 20.2839 16.0386ZM3.72072 17.997H20.2839C20.9133 17.997 21.4945 17.7102 21.8794 17.2091C22.0766 16.9517 22.0266 16.5842 21.7681 16.3878C21.5086 16.1909 21.1392 16.2406 20.9416 16.4984C20.7821 16.7056 20.5425 16.8247 20.2839 16.8247H3.72072C3.46031 16.8247 3.21971 16.7042 3.06072 16.4947C2.86447 16.2359 2.49461 16.1844 2.23514 16.3794C1.97472 16.5739 1.92283 16.9414 2.11861 17.1997C2.49697 17.6989 3.09611 17.997 3.72072 17.997ZM20.9413 18.5013C21.138 18.2444 21.5078 18.1938 21.7678 18.3907C22.0268 18.5866 22.0768 18.9541 21.8791 19.2115C21.4946 19.7126 20.9134 20 20.2836 20H3.72097C3.0959 20 2.49678 19.7019 2.11843 19.2026C1.92266 18.9438 1.97502 18.5763 2.23543 18.3818C2.49489 18.1877 2.86521 18.2388 3.06099 18.4975C3.21997 18.7076 3.46056 18.828 3.72097 18.828H20.2836C20.5422 18.828 20.7818 18.709 20.9413 18.5013Z" fill="white"/>
<path d="M3.72072 16.0385H20.2839C20.9133 16.0385 21.4945 15.7517 21.8794 15.2506C22.0766 14.9933 22.0266 14.6258 21.7681 14.4295C21.5086 14.2331 21.1392 14.2823 20.9416 14.5401C20.7821 14.7472 20.5425 14.8663 20.2839 14.8663H3.72072C3.46031 14.8663 3.21971 14.7458 3.06072 14.5363C2.86447 14.2776 2.49461 14.2256 2.23514 14.421C1.97472 14.6155 1.92283 14.983 2.11861 15.2413C2.49697 15.7409 3.09611 16.0385 3.72072 16.0385Z" fill="#E0F64B"/>
<path d="M3.72072 17.997H20.2839C20.9133 17.997 21.4945 17.7101 21.8794 17.209C22.0766 16.9517 22.0266 16.5842 21.7681 16.3878C21.5086 16.1909 21.1392 16.2406 20.9416 16.4984C20.7821 16.7056 20.5425 16.8247 20.2839 16.8247H3.72072C3.46031 16.8247 3.21971 16.7042 3.06072 16.4946C2.86447 16.2359 2.49461 16.1843 2.23514 16.3793C1.97472 16.5739 1.92283 16.9414 2.11861 17.1997C2.49697 17.6989 3.09611 17.997 3.72072 17.997Z" fill="#E0F64B"/>
<path d="M21.7678 18.3906C21.5078 18.1937 21.138 18.2443 20.9413 18.5012C20.7818 18.7089 20.5422 18.828 20.2836 18.828H3.72097C3.46056 18.828 3.21997 18.7075 3.06099 18.4975C2.86521 18.2387 2.49489 18.1876 2.23543 18.3817C1.97502 18.5762 1.92266 18.9438 2.11843 19.2025C2.49678 19.7018 3.0959 19.9999 3.72097 19.9999H20.2836C20.9134 19.9999 21.4946 19.7126 21.8791 19.2114C22.0768 18.9541 22.0268 18.5866 21.7678 18.3906Z" fill="#E0F64B"/>
</svg>
