<svg width="24" height="24" viewBox="0 0 24 24" fill="none" xmlns="http://www.w3.org/2000/svg">
<path d="M6.80699 3.00042L6.82158 3C6.84588 3.00047 6.87022 3.00215 6.89442 3.00502L6.80699 3.00042C6.84772 3.00042 6.8876 3.00372 6.92653 3.01007C6.94784 3.01302 6.9692 3.01747 6.99036 3.02288C7.0028 3.02659 7.0155 3.0302 7.02804 3.03414C7.04766 3.03974 7.06668 3.04655 7.0854 3.05416C7.09894 3.06028 7.11263 3.06636 7.12612 3.07283C7.14215 3.07986 7.15799 3.08813 7.17352 3.09701C7.18681 3.10532 7.20001 3.11341 7.2129 3.1219C7.22619 3.12991 7.23949 3.13927 7.25253 3.14913L7.33642 3.22284L11.3967 7.35807C11.6877 7.65438 11.6866 8.13375 11.3943 8.4287C11.1286 8.69685 10.7136 8.72032 10.4218 8.49971L10.3382 8.42623L7.55314 5.58913L7.55379 17.5034C7.55379 17.9215 7.21947 18.2605 6.80699 18.2605C6.42892 18.2605 6.11651 17.9757 6.06702 17.6062L6.0602 17.5034L6.05956 5.59014L3.27607 8.42623C3.01156 8.69559 2.59673 8.72103 2.30388 8.50178L2.21995 8.4287C1.95421 8.16055 1.92915 7.74003 2.1454 7.44311L2.21751 7.35807L6.27787 3.22284L6.32183 3.18196C6.33213 3.173 6.34269 3.16433 6.35349 3.15595L6.27787 3.22284C6.31446 3.18553 6.35399 3.1529 6.39566 3.12495C6.4102 3.11577 6.42533 3.1064 6.44077 3.09756C6.45511 3.0888 6.46969 3.08111 6.48448 3.07394C6.49907 3.06739 6.51385 3.06079 6.52889 3.05467C6.54796 3.04639 6.56757 3.03938 6.58734 3.03322C6.59939 3.02994 6.61173 3.02645 6.62418 3.02327C6.64424 3.01768 6.66456 3.01342 6.68492 3.01C6.69722 3.00845 6.70921 3.00675 6.72131 3.00535C6.74436 3.00214 6.76801 3.00051 6.79171 3.00002C6.79694 3.00047 6.80197 3.00042 6.80699 3.00042Z" fill="#1ABC7B"/>
<path d="M16.692 5.7395C17.0701 5.7395 17.3825 6.02431 17.432 6.3938L17.4388 6.49656L17.4387 18.4076L20.223 15.5737C20.5139 15.2774 20.9867 15.2763 21.2791 15.5713C21.5448 15.8394 21.5699 16.2599 21.3536 16.5568L21.2815 16.6419L17.2212 20.7771C17.1967 20.8015 17.1718 20.8236 17.1455 20.844L17.2212 20.7771C17.1845 20.8144 17.145 20.847 17.1034 20.875C17.0888 20.8842 17.0737 20.8935 17.0583 20.9024C17.0439 20.9111 17.0293 20.9189 17.0146 20.926C17 20.9325 16.9852 20.9392 16.9702 20.9453C16.951 20.9535 16.9315 20.9606 16.9117 20.9667C16.9 20.9699 16.8881 20.9733 16.876 20.9764C16.8544 20.9824 16.8328 20.9869 16.8111 20.9904C16.8009 20.9916 16.7903 20.9931 16.7795 20.9944C16.755 20.9978 16.7307 20.9995 16.7063 21C16.7015 20.9995 16.6968 20.9995 16.692 20.9995L16.6775 21C16.6531 20.9995 16.6288 20.9978 16.6046 20.9949L16.692 20.9995C16.6513 20.9995 16.6114 20.9962 16.5725 20.9899C16.551 20.9869 16.5293 20.9824 16.5079 20.9769C16.4966 20.9734 16.4852 20.9702 16.474 20.9668C16.4526 20.9607 16.4313 20.9531 16.4104 20.9445C16.3989 20.9391 16.3878 20.9342 16.3769 20.9291C16.3597 20.9216 16.3424 20.9126 16.3255 20.9029C16.3102 20.8935 16.2952 20.8841 16.2805 20.8743C16.269 20.8673 16.2576 20.8593 16.2465 20.8508L16.2385 20.844C16.2122 20.8236 16.1873 20.8015 16.164 20.7778L16.1626 20.7771L12.1023 16.6419C11.8113 16.3456 11.8124 15.8662 12.1047 15.5713C12.3705 15.3031 12.7854 15.2796 13.0773 15.5002L13.1609 15.5737L15.9451 18.4096L15.9452 6.49656C15.9452 6.07841 16.2796 5.7395 16.692 5.7395Z" fill="#171717"/>
</svg>
