<svg version="1.1" xmlns="http://www.w3.org/2000/svg" width="1024" height="1024" viewBox="0 0 1024 1024">
<path fill="#B8B8B8" d="M528 0c-49.8 0-92 32.6-106.6 77.6-15.8-8.6-34-13.6-53.4-13.6-61.8 0-112 50.2-112 112v401.6l-64.8-64.8c-43.8-43.8-114.6-43.8-158.4 0s-43.8 114.6 0 158.4l207.6 207.6c93 93 219.2 145.2 350.6 145.2h17c194.4 0 352-157.6 352-352v-368c0-61.8-50.2-112-112-112-17.2 0-33.4 3.8-48 10.8v-26.8c0-61.8-50.2-112-112-112-19.4 0-37.6 5-53.4 13.6-14.6-45-56.8-77.6-106.6-77.6zM368 128c26.6 0 48 21.4 48 48v304c0 17.6 14.4 32 32 32s32-14.4 32-32v-368c0-26.6 21.4-48 48-48s48 21.4 48 48v368c0 17.6 14.4 32 32 32s32-14.4 32-32v-304.2c0-26.4 21.6-47.8 48-47.8 26.6 0 48 21.4 48 48v128c0 0 0 0 0 0.2v175.8c0 17.6 14.4 32 32 32s32-14.4 32-32v-176.2c0-26.4 21.6-47.8 48-47.8 26.6 0 48 21.4 48 48v368c0 159-129 288-288 288h-17c-114.6 0-224.4-45.6-305.4-126.6l-207.6-207.4c-18.8-18.8-18.8-49.2 0-67.8s49.2-18.8 67.8 0l119.4 119.4c9.2 9.2 23 11.8 34.8 7s19.8-16.6 19.8-29.6v-479c0-26.6 21.4-48 48-48z"></path>
</svg>
