<svg version="1.1" xmlns="http://www.w3.org/2000/svg" width="1067" height="1024" viewBox="0 0 1067 1024">
<path fill="#B8B8B8" d="M583.27 638.374c43.008 0 78.012 34.748 78.012 77.457v109.85c0 9.178 7.36 16.538 16.789 16.751h68.079c53.653 0 97.267-43.068 97.267-95.996v-311.552c-0.252-18.213-8.93-35.355-23.825-46.747l-235.499-187.775c-31.612-25.034-75.831-25.034-107.55 0.071l-233.89 187.633c-15.467 11.749-24.146 28.891-24.325 47.424v310.946c0 52.928 43.613 95.996 97.263 95.996h68.724c9.68 0 17.538-7.68 17.538-17.105 0-2.074 0.25-4.143 0.678-6.11v-103.386c0-42.462 34.792-77.175 77.476-77.457h103.262zM746.15 896h-68.723c-39.36-0.93-69.722-31.821-69.722-70.319v-109.85c0-13.175-10.965-23.889-24.435-23.889h-103.083c-13.18 0.068-24.077 10.82-24.077 23.889v109.495c0 2.675-0.358 5.248-1.105 7.676-3.857 35.358-34.077 62.997-70.69 62.997h-68.724c-83.19 0-150.842-67.102-150.842-149.564v-311.194c0.357-35.499 16.716-67.997 44.971-89.389l233.424-187.311c51.401-40.712 123.017-40.712 174.31-0.072l235.106 187.49c27.61 21.035 43.968 53.461 44.433 88.531v311.945c0 82.462-67.652 149.564-150.844 149.564z"></path>
</svg>
