<svg width="24" height="24" viewBox="0 0 24 24" fill="none" xmlns="http://www.w3.org/2000/svg">
<path d="M7.2 23.9997H2.304C1.0336 23.9997 0 22.9995 0 21.7701V17.032C0 16.6047 0.3584 16.2578 0.8 16.2578C1.2416 16.2578 1.6 16.6047 1.6 17.032V21.7701C1.6 22.1456 1.916 22.4514 2.304 22.4514H7.2C7.6416 22.4514 8 22.7982 8 23.2256C8 23.6529 7.6416 23.9997 7.2 23.9997Z" fill="#B8B8B8"/>
<path d="M21.696 23.9997H16.8C16.3576 23.9997 16 23.6529 16 23.2256C16 22.7982 16.3576 22.4514 16.8 22.4514H21.696C22.084 22.4514 22.4 22.1456 22.4 21.7701V17.032C22.4 16.6047 22.7576 16.2578 23.2 16.2578C23.6424 16.2578 24 16.6047 24 17.032V21.7701C24 22.9995 22.9664 23.9997 21.696 23.9997Z" fill="#B8B8B8"/>
<path d="M23.2 7.74194C22.7576 7.74194 22.4 7.3951 22.4 6.96774V2.22968C22.4 1.85419 22.084 1.54839 21.696 1.54839H16.8C16.3576 1.54839 16 1.20155 16 0.774194C16 0.346839 16.3576 0 16.8 0H21.696C22.9664 0 24 1.00026 24 2.22968V6.96774C24 7.3951 23.6424 7.74194 23.2 7.74194Z" fill="#B8B8B8"/>
<path d="M0.8 7.74194C0.3584 7.74194 0 7.3951 0 6.96774V2.22968C0 1.00026 1.0336 0 2.304 0H7.2C7.6416 0 8 0.346839 8 0.774194C8 1.20155 7.6416 1.54839 7.2 1.54839H2.304C1.916 1.54839 1.6 1.85419 1.6 2.22968V6.96774C1.6 7.3951 1.2416 7.74194 0.8 7.74194Z" fill="#B8B8B8"/>
<path fill-rule="evenodd" clip-rule="evenodd" d="M9.25801 16.2583H14.7412C15.6556 16.2583 16.3996 15.5383 16.3996 14.6534V9.34709C16.3996 8.46219 15.6564 7.74219 14.7412 7.74219H9.25801C8.34361 7.74219 7.59961 8.46219 7.59961 9.34709V14.6534C7.59961 15.5383 8.34361 16.2583 9.25801 16.2583ZM9.19961 9.34709C9.19961 9.31612 9.22521 9.29057 9.25801 9.29057H14.7412C14.7732 9.29057 14.7996 9.31535 14.7996 9.34709V14.6534C14.7996 14.6844 14.7732 14.7099 14.7412 14.7099H9.25801C9.22601 14.7099 9.19961 14.6852 9.19961 14.6534V9.34709Z" fill="#B8B8B8"/>
</svg>
